<svg xmlns:mydata="http://www.w3.org/2000/svg" mydata:contrastcolor="606EB2" mydata:template="Contrast" mydata:presentation="2.5" mydata:layouttype="undefined" mydata:specialfontid="undefined" mydata:id1="004" mydata:id2="144" mydata:companyname="Help Flow" mydata:companytagline="" version="1.1" xmlns="http://www.w3.org/2000/svg" xmlns:xlink="http://www.w3.org/1999/xlink" style="height: 266px;" viewBox="0 0 550 470"><g fill="#101820" fill-rule="none" stroke="none" stroke-width="1" stroke-linecap="butt" stroke-linejoin="miter" stroke-miterlimit="10" stroke-dasharray="" stroke-dashoffset="0" font-family="none" font-weight="none" font-size="none" text-anchor="none" style="mix-blend-mode: normal"><g data-paper-data="{&quot;isGlobalGroup&quot;:true,&quot;bounds&quot;:{&quot;x&quot;:88.17295316927536,&quot;y&quot;:166.70088530840997,&quot;width&quot;:373.65409366144934,&quot;height&quot;:136.59822938318007}}"><g data-paper-data="{&quot;stacked&quot;:true,&quot;isPrimaryText&quot;:true}" fill-rule="nonzero" id="element-id-11605"><path d="M302.95354,174.2531h-8.37066c-1.52194,0 -2.45201,0.50731 -2.45201,2.45201v19.10879h-18.85513v-19.10879c0,-1.9447 -0.84552,-2.45201 -2.45201,-2.45201h-8.37066c-1.52194,0 -2.45201,0.50731 -2.45201,2.45201v50.7313c0,1.9447 0.93007,2.45201 2.45201,2.45201h8.37066c1.60649,0 2.45201,-0.50731 2.45201,-2.45201v-19.10879h18.85513v19.10879c0,1.9447 0.93007,2.45201 2.45201,2.45201h8.37066c1.52194,0 2.45201,-0.50731 2.45201,-2.45201v-50.7313c0,-1.9447 -0.93007,-2.45201 -2.45201,-2.45201z" data-paper-data="{&quot;glyphName&quot;:&quot;H&quot;,&quot;glyphIndex&quot;:0,&quot;firstGlyphOfWord&quot;:true,&quot;word&quot;:1,&quot;line&quot;:1,&quot;firstGlyphOfFirstLine&quot;:true}" id="element-id-7194"></path><path d="M355.88319,218.13567h-37.37206c-1.52194,0 -2.45201,0.50731 -2.45201,2.45201v6.93328c0,1.9447 0.93007,2.45201 2.45201,2.45201h37.37206c1.52194,0 2.45201,-0.50731 2.45201,-2.45201v-6.93328c0,-1.9447 -0.93007,-2.45201 -2.45201,-2.45201zM351.65558,196.15211h-28.91684c-1.52194,0 -2.45201,0.50731 -2.45201,2.45201v6.93328c0,1.9447 0.93007,2.45201 2.45201,2.45201h28.91684c1.52194,0 2.45201,-0.50731 2.45201,-2.45201v-6.93328c0,-1.9447 -0.93007,-2.45201 -2.45201,-2.45201zM355.88319,174.33765h-37.37206c-1.52194,0 -2.45201,0.50731 -2.45201,2.45201v6.93328c0,1.9447 0.93007,2.45201 2.45201,2.45201h37.37206c1.52194,0 2.45201,-0.50731 2.45201,-2.45201v-6.93328c0,-1.9447 -0.93007,-2.45201 -2.45201,-2.45201z" data-paper-data="{&quot;glyphName&quot;:&quot;ξ&quot;,&quot;glyphIndex&quot;:1,&quot;word&quot;:1,&quot;line&quot;:1}" id="element-id-45332"></path><path d="M406.61449,218.05112h-24.35102v-41.34601c0,-1.9447 -0.93007,-2.45201 -2.45201,-2.45201h-8.37066c-1.52194,0 -2.45201,0.50731 -2.45201,2.45201v50.7313c0,1.52194 0.50731,2.45201 2.45201,2.45201h35.1737c1.9447,0 2.45201,-0.93007 2.45201,-2.45201v-6.93328c0,-1.52194 -0.50731,-2.45201 -2.45201,-2.45201z" data-paper-data="{&quot;glyphName&quot;:&quot;L&quot;,&quot;glyphIndex&quot;:2,&quot;word&quot;:1,&quot;line&quot;:1}" id="element-id-81493"></path><path d="M439.67438,174.2531h-19.02424c-1.9447,0 -2.45201,0.93007 -2.45201,2.45201v50.7313c0,1.9447 0.93007,2.45201 2.45201,2.45201h8.37066c1.52194,0 2.45201,-0.50731 2.45201,-2.45201v-14.03566h8.11701c14.45842,0 22.23722,-7.7788 22.23722,-19.53155c0,-11.6682 -7.60969,-19.6161 -22.15267,-19.6161zM439.58983,201.98621h-8.11701v-15.81125h8.11701c6.59507,0 9.46984,3.55119 9.46984,7.9479c0,4.22761 -2.87477,7.86335 -9.46984,7.86335z" data-paper-data="{&quot;glyphName&quot;:&quot;P&quot;,&quot;glyphIndex&quot;:3,&quot;lastGlyphOfWord&quot;:true,&quot;word&quot;:1,&quot;line&quot;:1,&quot;lastGlyphOfFirstLine&quot;:true}" id="element-id-30104"></path><path d="M295.19038,244.1512h-32.96605c-1.7633,0 -2.22329,0.84332 -2.22329,2.22329v45.99914c0,1.37997 0.45999,2.22329 2.22329,2.22329h7.58986c1.7633,0 2.22329,-0.30666 2.22329,-2.29996v-17.93966h19.93296c1.7633,0 2.22329,-0.84332 2.22329,-2.22329v-6.05655c0,-1.37997 -0.45999,-2.22329 -2.22329,-2.22329h-19.93296v-8.96983h23.1529c1.7633,0 2.22329,-0.84332 2.22329,-2.22329v-6.28655c0,-1.37997 -0.45999,-2.22329 -2.22329,-2.22329z" data-paper-data="{&quot;glyphName&quot;:&quot;F&quot;,&quot;glyphIndex&quot;:4,&quot;firstGlyphOfWord&quot;:true,&quot;word&quot;:2,&quot;line&quot;:2,&quot;firstGlyphOfSecondLine&quot;:true}" fill="#4680FF"></path><path d="M340.26953,283.86379h-22.07959v-37.4893c0,-1.7633 -0.84332,-2.22329 -2.22329,-2.22329h-7.58986c-1.37997,0 -2.22329,0.45999 -2.22329,2.22329v45.99914c0,1.37997 0.45999,2.22329 2.22329,2.22329h31.89274c1.7633,0 2.22329,-0.84332 2.22329,-2.22329v-6.28655c0,-1.37997 -0.45999,-2.22329 -2.22329,-2.22329z" data-paper-data="{&quot;glyphName&quot;:&quot;L&quot;,&quot;glyphIndex&quot;:5,&quot;word&quot;:2,&quot;line&quot;:2}" fill="#4680FF"></path><path d="M390.40859,260.32756c0,-12.11311 -11.49978,-17.32634 -20.62295,-17.32634c-9.12316,0 -20.46962,5.21324 -20.46962,17.32634v18.09299c0,12.11311 11.34645,17.32634 20.46962,17.32634c9.12316,0 20.62295,-5.21324 20.62295,-17.32634zM378.37215,277.34724c0,4.90657 -3.5266,7.74319 -8.58651,7.74319c-4.98324,0 -8.50984,-2.83661 -8.50984,-7.74319v-15.94637c0,-4.90657 3.5266,-7.74319 8.50984,-7.74319c5.05991,0 8.58651,2.83661 8.58651,7.74319z" data-paper-data="{&quot;glyphName&quot;:&quot;O&quot;,&quot;glyphIndex&quot;:6,&quot;word&quot;:2,&quot;line&quot;:2}" fill="#4680FF"></path><path d="M460.40395,244.1512h-8.12651c-2.29996,0 -2.83661,1.5333 -3.06661,2.45329l-7.58986,26.06618l-7.43653,-26.06618c-0.30666,-1.07331 -0.84332,-2.45329 -2.52995,-2.45329h-5.36657c-1.7633,0 -2.29996,1.37997 -2.60662,2.45329l-7.35986,26.06618l-7.58986,-26.06618c-0.30666,-0.91998 -0.76665,-2.45329 -3.06661,-2.45329h-8.43318c-1.37997,0 -1.60997,1.30331 -1.37997,2.22329l14.18307,46.61246c0,0 0.38333,1.60997 2.06996,1.60997h6.74654c1.9933,0 2.45329,-1.7633 2.45329,-1.7633l7.66652,-24.45621l7.66652,24.45621c0,0 0.45999,1.7633 2.45329,1.7633h6.43988c1.68664,0 2.06996,-1.60997 2.06996,-1.60997l14.1064,-46.61246c0.30666,-0.91998 0.07667,-2.22329 -1.30331,-2.22329z" data-paper-data="{&quot;glyphName&quot;:&quot;W&quot;,&quot;glyphIndex&quot;:7,&quot;lastGlyphOfWord&quot;:true,&quot;word&quot;:2,&quot;line&quot;:2,&quot;lastGlyphOfSecondLine&quot;:true}" fill="#4680FF"></path></g><g data-paper-data="{&quot;fillRule&quot;:&quot;evenodd&quot;,&quot;fillRuleOriginal&quot;:&quot;evenodd&quot;,&quot;isIcon&quot;:true,&quot;iconStyle&quot;:&quot;standalone&quot;,&quot;selectedEffects&quot;:{&quot;container&quot;:&quot;&quot;,&quot;transformation&quot;:&quot;&quot;,&quot;pattern&quot;:&quot;&quot;},&quot;bounds&quot;:{&quot;x&quot;:88.17295316927536,&quot;y&quot;:166.70088530840997,&quot;width&quot;:137.68426902018035,&quot;height&quot;:136.59822938318007},&quot;iconType&quot;:&quot;icon&quot;,&quot;rawIconId&quot;:&quot;199992&quot;,&quot;isDetailed&quot;:false,&quot;suitableAsStandaloneIcon&quot;:true}" fill-rule="evenodd" id="element-id-30881"><path d="M140.08432,262.72768l-42.73256,24.67174v-104.79887l90.75914,52.39943l-25.21038,14.55637l9.1788,5.29842l34.39139,-19.8548l-118.29775,-68.2991v136.5982l61.09017,-35.2708zM164.41969,202.17176l9.1788,5.30062l43.07992,-24.87181v104.79887l-90.75914,-52.39943l24.86521,-14.35631l-9.1788,-5.29842l-34.04622,19.65473l118.29775,68.2991v-136.5982z" data-paper-data="{&quot;isPathIcon&quot;:true}" id="element-id-79385"></path></g></g></g><rect data-element-id="element-id-11605" stroke-width="2" fill="transparent" class="invisible-element-box grouping-element" x="260" y="174" width="202" height="121" data-element-name="isPrimaryText"></rect><rect data-element-id="element-id-30881" stroke-width="2" fill="transparent" class="invisible-element-box grouping-element" x="88" y="167" width="138" height="137" data-element-name="isIcon"></rect></svg>
